<?xml version="1.0" encoding="utf-8"?>
<!-- Generator: Adobe Illustrator 24.2.3, SVG Export Plug-In . SVG Version: 6.00 Build 0)  -->
<svg version="1.1" id="Layer_1" xmlns="http://www.w3.org/2000/svg" xmlns:xlink="http://www.w3.org/1999/xlink" x="0px" y="0px"
	 viewBox="0 0 837 489" style="enable-background:new 0 0 837 489;" xml:space="preserve">
<style type="text/css">
	.st0{fill:#FE8735;}
	.st1{fill:#1C3049;}
	.st2{fill:#FE8938;}
	.st3{font-family:'RimouskiLight';}
	.st4{font-size:65.8116px;}
	.st5{letter-spacing:3;}
	.st6{font-size:40.6327px;}
	.st7{letter-spacing:7;}
</style>
<g>
	<path class="st0" d="M299,180.8c0.9-34.7,13.6-63,39-85.4c6.9-6.1,14.4-5.1,19.5,2.4c26.4,39,80.1,39.2,106.8,0.3
		c5.5-8.1,12.8-8.9,20.2-2.3c25.8,23.1,38.9,52.1,38.3,86.7c-0.6,31.1-12.6,57.5-35.4,78.9c-5.7,5.4-14,3.3-16.3-4.3
		c-5.1-16.7-14.5-30.2-28.9-40.2c-4-2.8-3.1-5.3-0.3-8.6c17.4-20.6,13.6-49.2-8.4-63.4c-16.9-10.9-38.5-8.2-52.9,6.6
		c-13.6,14.1-15.3,36.1-4,52.3c1.1,1.6,2.3,3.3,3.7,4.7c3.3,3.3,2.8,5.9-0.8,8.6c-9.9,7.4-17.7,16.6-23.6,27.4
		c-2.1,3.8-3.7,7.8-5.4,11.8c-3.4,8-11.1,10-17.2,3.9c-18.5-18.4-30.2-40.4-33.2-66.6C299.5,189.2,299.3,184.5,299,180.8z"/>
	<path class="st0" d="M368.4,67.2c0-23.5,18.8-42.6,42.4-42.8c23.6-0.2,43,19.2,42.9,42.9c-0.1,23.4-19.4,42.7-42.7,42.6
		C387.5,109.8,368.4,90.6,368.4,67.2z"/>
</g>
<g>
	<path class="st1" d="M23.8,362.2c3.4,0,5.5,1.8,6.1,5.3c1.8-2,4.1-3.7,6.8-4.9c2.7-1.2,5.7-1.8,9-1.8c3.8,0,7.3,0.7,10.4,2.1
		c3.1,1.4,5.7,3.3,7.9,5.7c2.2,2.4,3.9,5.2,5,8.5c1.2,3.3,1.7,6.8,1.7,10.6v28c0,1.9-0.5,3.4-1.6,4.4c-1.1,1.1-2.6,1.6-4.4,1.6
		c-1.8,0-3.2-0.5-4.3-1.6c-1.1-1.1-1.7-2.5-1.7-4.4v-28c0-2-0.3-4-1-5.8c-0.6-1.8-1.5-3.4-2.7-4.7c-1.2-1.3-2.6-2.4-4.3-3.2
		c-1.7-0.8-3.6-1.2-5.7-1.2s-4,0.4-5.8,1.2c-1.8,0.8-3.3,1.8-4.5,3.1c-1.3,1.3-2.2,2.9-2.9,4.6c-0.7,1.8-1,3.8-1,5.9v28
		c0,1.9-0.5,3.4-1.6,4.4c-1.1,1.1-2.6,1.6-4.5,1.6c-1.7,0-3.1-0.5-4.3-1.6c-1.2-1.1-1.7-2.5-1.7-4.4v-48.2c0-1.6,0.5-2.9,1.5-3.9
		C21.1,362.7,22.4,362.2,23.8,362.2z"/>
	<path class="st1" d="M116,360.8c4.2,0,8.2,0.8,12,2.4c3.8,1.6,7.1,3.8,9.9,6.5c2.8,2.7,5.1,5.9,6.7,9.5c1.7,3.6,2.5,7.4,2.5,11.5
		c0,2-0.5,3.6-1.6,4.6c-1.1,1.1-2.5,1.6-4.4,1.6H98.1c0.4,2,1.1,3.8,2.2,5.5c1.1,1.7,2.5,3.2,4.2,4.4c1.7,1.2,3.5,2.2,5.4,2.9
		c2,0.7,4,1.1,6,1.1c2.6,0,5-0.5,7.2-1.4c2.2-0.9,4.1-2.2,5.8-3.9c0.7-0.6,1.5-1.1,2.3-1.5c0.8-0.4,1.7-0.6,2.4-0.6
		c1.6,0,3,0.6,4.1,1.8c1.1,1.2,1.6,2.6,1.6,4.2c0,0.8-0.1,1.7-0.3,2.4c-0.2,0.8-0.6,1.5-1.3,2.1c-2.7,3-6,5.3-9.7,6.8
		c-3.7,1.5-7.8,2.2-12.1,2.2c-4.3,0-8.3-0.8-12.1-2.4c-3.8-1.6-7.1-3.8-9.9-6.6c-2.8-2.8-5-6.1-6.7-9.8c-1.6-3.8-2.4-7.8-2.4-12.1
		c0-4.3,0.8-8.3,2.4-12.1c1.6-3.8,3.8-7.1,6.7-9.9c2.8-2.8,6.1-5.1,9.9-6.7C107.6,361.7,111.7,360.8,116,360.8z M116,373
		c-2,0-4,0.4-6,1.1c-2,0.7-3.7,1.7-5.3,3s-2.9,2.7-4.1,4.4c-1.1,1.7-1.9,3.5-2.3,5.5h35.5c-0.4-2-1.1-3.8-2.2-5.5
		c-1.1-1.7-2.5-3.2-4.1-4.4c-1.6-1.3-3.4-2.3-5.4-3C120,373.3,118,373,116,373z"/>
	<path class="st1" d="M206,421.7c-3.5,0-5.5-1.8-6.1-5.3c-1.4,2-3.3,3.7-5.7,4.9c-2.4,1.2-5.2,1.8-8.6,1.8c-3.8,0-7.2-0.6-10.2-1.9
		c-3-1.3-5.6-3-7.7-5.3c-2.1-2.3-3.7-5-4.9-8.1c-1.1-3.2-1.7-6.7-1.7-10.5v-29c0-1.9,0.5-3.4,1.6-4.4c1.1-1.1,2.6-1.6,4.4-1.6
		c1.8,0,3.2,0.5,4.3,1.6c1.1,1.1,1.7,2.5,1.7,4.4v29c0,4.2,1.1,7.5,3.3,10c2.2,2.5,5.5,3.8,9.8,3.8c4.3,0,7.5-1.2,9.6-3.7
		c2.1-2.5,3.2-5.8,3.2-10v-29c0-1.9,0.5-3.4,1.6-4.4c1.1-1.1,2.6-1.6,4.5-1.6c1.7,0,3.1,0.5,4.3,1.6c1.2,1.1,1.7,2.5,1.7,4.4v48.2
		c0,1.6-0.5,2.9-1.5,3.9C208.6,421.2,207.4,421.7,206,421.7z"/>
	<path class="st1" d="M233.3,362.2c1.8,0,3.1,0.5,3.9,1.6c0.8,1.1,1.3,2.6,1.5,4.5c2-2.3,4.3-3.9,6.7-4.9c2.4-1,5.2-1.5,8.3-1.5
		c1.8,0,3.2,0.5,4.4,1.4c1.2,1,1.7,2.5,1.7,4.6c0,1.7-0.4,3-1.3,4.1c-0.8,1-2.2,1.6-4,1.7c-3,0.2-5.5,0.7-7.5,1.4
		c-2,0.7-3.5,1.7-4.6,2.9c-1.1,1.2-1.9,2.7-2.3,4.4c-0.4,1.7-0.6,3.6-0.6,5.8v27.8c0,1.5-0.5,2.9-1.6,4c-1.1,1.1-2.6,1.6-4.4,1.6
		c-1.8,0-3.3-0.5-4.4-1.6c-1.1-1.1-1.7-2.4-1.7-4.1v-47.1c0-1.8,0.4-3.4,1.3-4.7C229.5,362.9,231.1,362.2,233.3,362.2z"/>
	<path class="st1" d="M296,360.8c4.3,0,8.3,0.8,12.1,2.5c3.8,1.7,7.1,3.9,9.9,6.7c2.8,2.8,5,6.1,6.7,9.9c1.6,3.8,2.4,7.8,2.4,12.1
		c0,4.3-0.8,8.3-2.4,12.1c-1.6,3.8-3.8,7-6.7,9.8c-2.8,2.8-6.1,5-9.9,6.6c-3.8,1.6-7.8,2.4-12.1,2.4c-4.3,0-8.3-0.8-12.1-2.4
		c-3.8-1.6-7.1-3.8-9.9-6.6c-2.8-2.8-5-6.1-6.7-9.8c-1.6-3.8-2.4-7.8-2.4-12.1c0-4.3,0.8-8.3,2.4-12.1c1.6-3.8,3.8-7.1,6.7-9.9
		c2.8-2.8,6.1-5.1,9.9-6.7C287.6,361.7,291.7,360.8,296,360.8z M296,373c-2.7,0-5.2,0.5-7.4,1.5c-2.3,1-4.3,2.3-6,4.1
		c-1.7,1.7-3,3.8-4,6.1c-1,2.3-1.5,4.8-1.5,7.4c0,2.6,0.5,5.1,1.5,7.3c1,2.3,2.3,4.3,4,6c1.7,1.7,3.7,3,6,4c2.3,1,4.8,1.5,7.4,1.5
		c2.6,0,5.1-0.5,7.3-1.5c2.3-1,4.3-2.3,6-4c1.7-1.7,3.1-3.7,4.1-6c1-2.3,1.5-4.7,1.5-7.3c0-2.6-0.5-5.1-1.5-7.4
		c-1-2.3-2.3-4.3-4.1-6.1c-1.7-1.7-3.7-3.1-6-4.1C301,373.5,298.6,373,296,373z"/>
	<path class="st2" d="M357.4,384.5c2.7,1.1,4.9,2.1,6.8,3.2c1.9,1.1,3.4,2.2,4.7,3.4c1.6,1.6,2.8,3.5,3.5,5.5
		c0.7,2.1,1.1,4.6,1.1,7.7c0,2.3-0.4,4.4-1.3,6.5c-0.8,2.1-2.1,4-3.6,5.7c-1.6,1.7-3.5,3-5.7,4c-2.2,1-4.7,1.5-7.6,1.5
		c-2.5,0-4.9-0.4-7.2-1.2c-2.4-0.8-4.3-1.8-6-3.1c-1-0.8-1.8-1.7-2.5-2.6c-0.7-1-1-2.1-1-3.4c0-1.4,0.5-2.7,1.5-4
		c1-1.2,2.3-1.8,3.8-1.8c1.3,0,2.6,0.4,4,1.3c1.1,0.6,2.2,1.2,3.4,1.6c1.2,0.4,2.5,0.6,4,0.6c2.1,0,3.7-0.5,4.6-1.6
		c1-1.1,1.5-2.4,1.5-4.1c0-1.5-0.3-2.7-0.8-3.5c-0.5-0.8-1.2-1.5-2-2.1c-1.6-1.2-3.4-2.1-5.3-2.7c-1.9-0.6-3.8-1.5-5.7-2.5
		c-2.5-1.4-4.4-3.2-5.8-5.4c-1.4-2.2-2.1-5-2.1-8.4c0-2.5,0.4-4.8,1.3-6.9c0.8-2.1,2-3.9,3.5-5.3c1.5-1.5,3.3-2.6,5.3-3.4
		c2-0.8,4.3-1.2,6.8-1.2c2.5,0,4.9,0.5,7.3,1.4c2.4,0.9,4.2,2.3,5.5,4.1c0.8,1.2,1.3,2.7,1.3,4.5c0,1.5-0.4,2.8-1.3,3.9
		c-0.9,1.1-2.2,1.6-4.1,1.6c-0.7,0-1.5-0.2-2.3-0.5c-0.8-0.3-1.4-0.8-1.8-1.3c-1.2-1.5-2.9-2.3-5.2-2.3c-1.1,0-2.1,0.4-3,1.3
		c-0.9,0.8-1.3,2.1-1.3,3.7c0,1.5,0.3,2.6,1,3.4C353.4,382.6,355,383.5,357.4,384.5z"/>
	<path class="st2" d="M415.7,360.8c4.2,0,8.2,0.8,12,2.4c3.8,1.6,7.1,3.8,9.9,6.5c2.8,2.7,5.1,5.9,6.7,9.5c1.7,3.6,2.5,7.4,2.5,11.5
		c0,2-0.5,3.6-1.6,4.6c-1.1,1.1-2.5,1.6-4.4,1.6h-42.9c0.4,2,1.1,3.8,2.2,5.5c1.1,1.7,2.5,3.2,4.2,4.4c1.7,1.2,3.5,2.2,5.4,2.9
		c2,0.7,4,1.1,6,1.1c2.6,0,5-0.5,7.2-1.4c2.2-0.9,4.1-2.2,5.8-3.9c0.7-0.6,1.5-1.1,2.3-1.5c0.8-0.4,1.7-0.6,2.4-0.6
		c1.6,0,3,0.6,4.1,1.8c1.1,1.2,1.6,2.6,1.6,4.2c0,0.8-0.1,1.7-0.3,2.4c-0.2,0.8-0.6,1.5-1.3,2.1c-2.7,3-6,5.3-9.7,6.8
		c-3.7,1.5-7.8,2.2-12.1,2.2c-4.3,0-8.3-0.8-12.1-2.4c-3.8-1.6-7.1-3.8-9.9-6.6c-2.8-2.8-5-6.1-6.7-9.8c-1.6-3.8-2.4-7.8-2.4-12.1
		c0-4.3,0.8-8.3,2.4-12.1c1.6-3.8,3.8-7.1,6.7-9.9c2.8-2.8,6.1-5.1,9.9-6.7C407.4,361.7,411.4,360.8,415.7,360.8z M415.7,373
		c-2,0-4,0.4-6,1.1c-2,0.7-3.7,1.7-5.3,3s-2.9,2.7-4.1,4.4c-1.1,1.7-1.9,3.5-2.3,5.5h35.5c-0.4-2-1.1-3.8-2.2-5.5
		c-1.1-1.7-2.5-3.2-4.1-4.4c-1.6-1.3-3.4-2.3-5.4-3C419.8,373.3,417.8,373,415.7,373z"/>
	<path class="st2" d="M466,362.2c3.4,0,5.5,1.8,6.1,5.3c1.8-2,4.1-3.7,6.8-4.9c2.7-1.2,5.7-1.8,9-1.8c3.8,0,7.3,0.7,10.4,2.1
		s5.7,3.3,7.9,5.7c2.2,2.4,3.9,5.2,5,8.5s1.7,6.8,1.7,10.6v28c0,1.9-0.5,3.4-1.6,4.4c-1.1,1.1-2.6,1.6-4.4,1.6
		c-1.8,0-3.2-0.5-4.3-1.6c-1.1-1.1-1.7-2.5-1.7-4.4v-28c0-2-0.3-4-1-5.8c-0.6-1.8-1.5-3.4-2.7-4.7c-1.2-1.3-2.6-2.4-4.3-3.2
		c-1.7-0.8-3.6-1.2-5.7-1.2s-4,0.4-5.8,1.2c-1.8,0.8-3.3,1.8-4.5,3.1c-1.3,1.3-2.2,2.9-2.9,4.6c-0.7,1.8-1,3.8-1,5.9v28
		c0,1.9-0.5,3.4-1.6,4.4c-1.1,1.1-2.6,1.6-4.5,1.6c-1.7,0-3.1-0.5-4.3-1.6c-1.2-1.1-1.7-2.5-1.7-4.4v-48.2c0-1.6,0.5-2.9,1.5-3.9
		C463.4,362.7,464.6,362.2,466,362.2z"/>
	<path class="st2" d="M545.5,384.5c2.7,1.1,4.9,2.1,6.8,3.2c1.9,1.1,3.4,2.2,4.7,3.4c1.6,1.6,2.8,3.5,3.5,5.5
		c0.7,2.1,1.1,4.6,1.1,7.7c0,2.3-0.4,4.4-1.3,6.5c-0.8,2.1-2.1,4-3.6,5.7c-1.6,1.7-3.5,3-5.7,4c-2.2,1-4.7,1.5-7.6,1.5
		c-2.5,0-4.9-0.4-7.2-1.2c-2.4-0.8-4.3-1.8-6-3.1c-1-0.8-1.8-1.7-2.5-2.6c-0.7-1-1-2.1-1-3.4c0-1.4,0.5-2.7,1.5-4
		c1-1.2,2.3-1.8,3.8-1.8c1.3,0,2.6,0.4,4,1.3c1.1,0.6,2.2,1.2,3.4,1.6c1.2,0.4,2.5,0.6,4,0.6c2.1,0,3.7-0.5,4.6-1.6
		c1-1.1,1.5-2.4,1.5-4.1c0-1.5-0.3-2.7-0.8-3.5c-0.5-0.8-1.2-1.5-2-2.1c-1.6-1.2-3.4-2.1-5.3-2.7c-1.9-0.6-3.8-1.5-5.7-2.5
		c-2.5-1.4-4.4-3.2-5.8-5.4c-1.4-2.2-2.1-5-2.1-8.4c0-2.5,0.4-4.8,1.3-6.9c0.8-2.1,2-3.9,3.5-5.3c1.5-1.5,3.3-2.6,5.3-3.4
		c2-0.8,4.3-1.2,6.8-1.2c2.5,0,4.9,0.5,7.3,1.4c2.4,0.9,4.2,2.3,5.5,4.1c0.8,1.2,1.3,2.7,1.3,4.5c0,1.5-0.4,2.8-1.3,3.9
		c-0.9,1.1-2.2,1.6-4.1,1.6c-0.7,0-1.5-0.2-2.3-0.5c-0.8-0.3-1.4-0.8-1.8-1.3c-1.2-1.5-2.9-2.3-5.2-2.3c-1.1,0-2.1,0.4-3,1.3
		c-0.9,0.8-1.3,2.1-1.3,3.7c0,1.5,0.3,2.6,1,3.4C541.5,382.6,543.1,383.5,545.5,384.5z"/>
	<path class="st2" d="M603.8,360.8c4.3,0,8.3,0.8,12.1,2.5c3.8,1.7,7.1,3.9,9.9,6.7c2.8,2.8,5,6.1,6.7,9.9c1.6,3.8,2.4,7.8,2.4,12.1
		c0,4.3-0.8,8.3-2.4,12.1c-1.6,3.8-3.8,7-6.7,9.8c-2.8,2.8-6.1,5-9.9,6.6c-3.8,1.6-7.8,2.4-12.1,2.4c-4.3,0-8.3-0.8-12.1-2.4
		c-3.8-1.6-7.1-3.8-9.9-6.6c-2.8-2.8-5-6.1-6.7-9.8c-1.6-3.8-2.4-7.8-2.4-12.1c0-4.3,0.8-8.3,2.4-12.1c1.6-3.8,3.8-7.1,6.7-9.9
		c2.8-2.8,6.1-5.1,9.9-6.7C595.5,361.7,599.5,360.8,603.8,360.8z M603.8,373c-2.7,0-5.2,0.5-7.4,1.5c-2.3,1-4.3,2.3-6,4.1
		c-1.7,1.7-3,3.8-4,6.1c-1,2.3-1.5,4.8-1.5,7.4c0,2.6,0.5,5.1,1.5,7.3c1,2.3,2.3,4.3,4,6c1.7,1.7,3.7,3,6,4c2.3,1,4.8,1.5,7.4,1.5
		c2.6,0,5.1-0.5,7.3-1.5c2.3-1,4.3-2.3,6-4c1.7-1.7,3.1-3.7,4.1-6c1-2.3,1.5-4.7,1.5-7.3c0-2.6-0.5-5.1-1.5-7.4
		c-1-2.3-2.3-4.3-4.1-6.1c-1.7-1.7-3.7-3.1-6-4.1C608.9,373.5,606.4,373,603.8,373z"/>
	<path class="st2" d="M655,362.2c1.8,0,3.1,0.5,3.9,1.6c0.8,1.1,1.3,2.6,1.5,4.5c2-2.3,4.3-3.9,6.7-4.9c2.4-1,5.2-1.5,8.3-1.5
		c1.8,0,3.2,0.5,4.4,1.4c1.2,1,1.7,2.5,1.7,4.6c0,1.7-0.4,3-1.3,4.1c-0.8,1-2.2,1.6-4,1.7c-3,0.2-5.5,0.7-7.5,1.4
		c-2,0.7-3.5,1.7-4.6,2.9c-1.1,1.2-1.9,2.7-2.3,4.4c-0.4,1.7-0.6,3.6-0.6,5.8v27.8c0,1.5-0.5,2.9-1.6,4c-1.1,1.1-2.6,1.6-4.4,1.6
		c-1.8,0-3.3-0.5-4.4-1.6c-1.1-1.1-1.7-2.4-1.7-4.1v-47.1c0-1.8,0.4-3.4,1.3-4.7C651.1,362.9,652.7,362.2,655,362.2z"/>
	<path class="st2" d="M705.1,415.6c0,1.9-0.5,3.4-1.6,4.5c-1.1,1.1-2.6,1.6-4.5,1.6c-1.7,0-3.1-0.5-4.3-1.6
		c-1.2-1.1-1.7-2.6-1.7-4.5v-45.2c0-1.8,0.6-3.2,1.7-4.3c1.2-1.1,2.6-1.7,4.3-1.7c1.9,0,3.4,0.6,4.5,1.7c1.1,1.1,1.6,2.6,1.6,4.3
		V415.6z M699.2,340.1c5.6,0,7.2,1.7,7.2,7c0,5.1-1.9,6.9-7.4,6.9c-5.5,0-7.3-1.7-7.2-7C691.8,341.8,693.6,340.1,699.2,340.1z"/>
	<path class="st2" d="M780.7,415.6c0,1.9-0.5,3.4-1.6,4.5c-1.1,1.1-2.6,1.6-4.5,1.6c-1.7,0-3.1-0.5-4.3-1.6
		c-1.2-1.1-1.7-2.6-1.7-4.5v-0.3c-1,1-2.1,2-3.4,2.9c-1.3,1-2.7,1.8-4.3,2.5c-1.6,0.7-3.3,1.3-5,1.7c-1.8,0.4-3.5,0.6-5.3,0.6
		c-4.5,0-8.7-0.8-12.5-2.4c-3.8-1.6-7.1-3.8-9.8-6.6c-2.7-2.8-4.9-6.1-6.4-9.8c-1.5-3.8-2.3-7.8-2.3-12.1c0-4.3,0.8-8.3,2.3-12.1
		c1.5-3.8,3.7-7.1,6.5-9.9c2.8-2.8,6.1-5.1,9.9-6.7c3.8-1.7,7.9-2.5,12.4-2.5c3.9,0,7.4,0.7,10.5,2c3,1.3,5.6,3.1,7.6,5.4
		c0-1.8,0.6-3.3,1.7-4.4c1.2-1.1,2.6-1.6,4.3-1.6c1.9,0,3.4,0.5,4.5,1.6c1.1,1.1,1.6,2.6,1.6,4.4V415.6z M750.4,373
		c-2.7,0-5.2,0.5-7.4,1.5c-2.3,1-4.3,2.3-6,4.1c-1.7,1.7-3,3.8-4,6.1c-1,2.3-1.5,4.8-1.5,7.4c0,2.6,0.5,5.1,1.5,7.3
		c1,2.3,2.3,4.3,4,6c1.7,1.7,3.7,3,6,4c2.3,1,4.8,1.5,7.4,1.5c2.5,0,4.9-0.5,7.1-1.5c2.2-1,4.1-2.3,5.7-4c1.6-1.7,2.8-3.7,3.8-6
		c0.9-2.3,1.4-4.7,1.4-7.3c0-2.6-0.5-5.1-1.4-7.4c-0.9-2.3-2.2-4.3-3.8-6.1c-1.6-1.7-3.5-3.1-5.7-4.1C755.4,373.5,753,373,750.4,373
		z"/>
	<path class="st2" d="M808.9,415.6c0,1.9-0.5,3.4-1.6,4.5c-1.1,1.1-2.6,1.6-4.5,1.6c-1.7,0-3.1-0.5-4.3-1.6
		c-1.2-1.1-1.7-2.6-1.7-4.5v-70.7c0-1.8,0.6-3.3,1.7-4.4c1.2-1.1,2.6-1.6,4.3-1.6c1.9,0,3.4,0.5,4.5,1.6c1.1,1.1,1.6,2.6,1.6,4.4
		V415.6z"/>
</g>
<text transform="matrix(1 0 0 1 303.3096 332.627)" class="st1 st3 st4 st5">centro</text>
<g>
	<text transform="matrix(1 0 0 1 446.0052 471.1699)" class="st1 st3 st6 st7">AMPLIA O OLHAR</text>
</g>
</svg>
